<svg id="Capa_1" enable-background="new 0 0 512 512" height="512" viewBox="0 0 512 512" width="512" xmlns="http://www.w3.org/2000/svg"><g><path d="m49.085 134.82 47.26 14.62c.738.229 1.484.337 2.219.337 3.201 0 6.167-2.066 7.163-5.286 1.224-3.957-.991-8.157-4.949-9.381l-47.26-14.62c-3.955-1.225-8.157.991-9.381 4.949-1.224 3.957.991 8.157 4.948 9.381z"/><path d="m140.913 94.975c.996 3.219 3.961 5.286 7.163 5.286.734 0 1.481-.109 2.219-.337 3.957-1.224 6.172-5.424 4.948-9.381l-14.62-47.26c-1.225-3.957-5.427-6.173-9.382-4.948-3.957 1.224-6.172 5.424-4.948 9.382z"/><path d="m113.958 118.762c1.464 1.465 3.384 2.197 5.303 2.197s3.839-.732 5.303-2.197c2.929-2.929 2.929-7.678 0-10.606l-35.61-35.612c-2.928-2.929-7.677-2.929-10.606 0s-2.929 7.678 0 10.606z"/><path d="m151.033 285.922c-2.366-.836-4.789-1.715-7.203-2.632v-37.968c5.607 1.235 9.196 3.941 10.194 4.772 3.184 2.647 7.912 2.214 10.562-.97 2.649-3.184 2.214-7.913-.97-10.562-1.82-1.514-8.958-6.902-19.786-8.443v-7.935c0-4.142-3.358-7.5-7.5-7.5s-7.5 3.358-7.5 7.5v8.496c-1.252.267-2.528.592-3.83.984-11.127 3.352-19.442 12.879-21.701 24.863-2.057 10.915 1.432 21.433 9.104 27.45 4.143 3.249 9.314 6.225 16.427 9.377v47.843c-6.361-.414-10.644-1.876-17.771-6.539-3.466-2.269-8.115-1.296-10.382 2.17-2.268 3.466-1.296 8.115 2.17 10.382 10.119 6.619 17 8.533 25.982 9v8.869c0 4.142 3.358 7.5 7.5 7.5s7.5-3.358 7.5-7.5v-9.452c17.67-3.328 27.991-17.832 30.269-31.38 2.909-17.299-6.145-32.344-23.065-38.325zm-29.373-13.745c-3.249-2.548-4.636-7.479-3.621-12.87.93-4.937 4.259-10.894 10.791-13.106v30.503c-2.71-1.44-5.157-2.948-7.17-4.527zm37.646 49.587c-1.255 7.467-6.519 15.407-15.476 18.37v-40.859c.726.262 1.45.523 2.204.789 14.819 5.239 13.904 17.934 13.272 21.7z"/><path d="m336.388 195.76c2.315-3.434 1.408-8.095-2.025-10.411-3.435-2.315-8.095-1.409-10.412 2.025-6.204 9.201-14.142 14.268-22.352 14.268-13.636 0-25.648-14.072-30.577-33.441h47.234c4.143 0 7.5-3.358 7.5-7.5s-3.357-7.5-7.5-7.5h-49.495c-.075-1.419-.124-2.849-.124-4.293 0-1.447.049-2.879.125-4.301h49.495c4.143 0 7.5-3.358 7.5-7.5s-3.357-7.5-7.5-7.5h-47.233c4.93-19.369 16.941-33.441 30.576-33.441 8.209 0 16.147 5.067 22.352 14.269 2.316 3.435 6.978 4.341 10.412 2.025 3.435-2.316 4.341-6.977 2.025-10.412-9.081-13.466-21.436-20.882-34.789-20.882-13.387 0-25.76 7.444-34.838 20.961-5.272 7.849-9.067 17.256-11.18 27.479h-5.886c-4.142 0-7.5 3.358-7.5 7.5s3.358 7.5 7.5 7.5h4.048c-.062 1.427-.105 2.859-.105 4.301 0 1.439.043 2.869.105 4.293h-4.047c-4.142 0-7.5 3.358-7.5 7.5s3.358 7.5 7.5 7.5h5.885c2.114 10.224 5.909 19.631 11.181 27.481 9.079 13.516 21.451 20.96 34.838 20.96 13.351.002 25.706-7.414 34.787-20.881z"/><path d="m406.782 229.797c17.112-23.383 26.418-51.659 26.418-80.895 0-26.851-7.769-52.852-22.465-75.192-2.276-3.461-6.928-4.42-10.388-2.144s-4.42 6.927-2.144 10.388c13.081 19.886 19.996 43.036 19.996 66.948 0 28.571-9.981 56.109-28.174 77.989-4.948-.543-9.971-.831-15.061-.831-2.599 0-5.179.08-7.742.223 20.917-19.225 34.05-46.795 34.05-77.377 0-57.958-47.151-105.109-105.108-105.109-57.958 0-105.109 47.152-105.109 105.109 0 56.638 45.032 102.949 101.172 105.028-6.058 4.603-11.724 9.697-16.936 15.224-27.393-4.729-52.462-18.78-70.933-39.853-19.494-22.24-30.229-50.794-30.229-80.402 0-67.288 54.743-122.03 122.03-122.03 31.407 0 61.244 11.904 84.017 33.52 3.002 2.851 7.75 2.729 10.603-.276 2.852-3.004 2.729-7.751-.276-10.603-25.571-24.273-59.076-37.641-94.343-37.641-75.559 0-137.03 61.472-137.03 137.03 0 3.195.114 6.378.334 9.545-7.386-1.217-14.895-1.846-22.434-1.846-75.559 0-137.03 61.472-137.03 137.03 0 75.564 61.471 137.04 137.03 137.04 39.657 0 76.749-16.969 102.578-46.17 10.309 65.427 67.079 115.625 135.358 115.625 75.561 0 137.034-61.473 137.034-137.034 0-64.609-44.95-118.911-105.218-133.296zm-200.726-80.891c0-49.687 40.423-90.109 90.109-90.109s90.108 40.423 90.108 90.109-40.423 90.109-90.108 90.109c-49.686 0-90.109-40.423-90.109-90.109zm-69.026 266.766c-67.288 0-122.03-54.747-122.03-122.04 0-67.288 54.742-122.03 122.03-122.03 8.239 0 16.433.834 24.43 2.458 1.177 6.313 2.798 12.52 4.839 18.582-9.436-2.738-19.226-4.12-29.269-4.12-57.958 0-105.11 47.152-105.11 105.11s47.152 105.11 105.11 105.11c17.595 0 35.001-4.433 50.338-12.819 3.634-1.987 4.97-6.544 2.982-10.179-1.988-3.634-6.545-4.97-10.179-2.982-13.137 7.184-28.055 10.98-43.142 10.98-49.687 0-90.11-40.423-90.11-90.11s40.423-90.11 90.11-90.11c13.022 0 25.545 2.706 37.262 8.045 5.075 9.869 11.364 19.156 18.787 27.625 8.562 9.769 18.393 18.188 29.147 25.089 3.248 9.413 4.915 19.271 4.915 29.351 0 23.387-8.914 45.546-25.099 62.394-2.87 2.987-2.774 7.735.213 10.604 1.455 1.397 3.326 2.091 5.195 2.091 1.97 0 3.937-.771 5.41-2.304 18.882-19.656 29.281-45.505 29.281-72.786 0-6.622-.624-13.162-1.835-19.579 5.851 2.616 11.888 4.824 18.072 6.598.335 3.176.539 6.355.626 9.513-13.199 20.913-20.901 45.624-21.06 72.093-22.801 33.484-60.353 53.416-100.913 53.416zm237.936 69.456c-67.29 0-122.034-54.744-122.034-122.034s54.744-122.034 122.034-122.034 122.034 54.744 122.034 122.034-54.744 122.034-122.034 122.034z"/><path d="m374.966 257.985c-57.957 0-105.108 47.152-105.108 105.109s47.151 105.109 105.108 105.109 105.109-47.152 105.109-105.109-47.152-105.109-105.109-105.109zm0 195.218c-49.686 0-90.108-40.423-90.108-90.109 0-49.687 40.423-90.109 90.108-90.109 49.687 0 90.109 40.423 90.109 90.109s-40.423 90.109-90.109 90.109z"/><path d="m415.806 298.006c-3.454-2.286-8.107-1.339-10.394 2.115l-31.222 47.175-31.519-47.483c-2.291-3.451-6.947-4.392-10.396-2.101-3.451 2.291-4.392 6.945-2.102 10.396l33.572 50.577h-27.245c-4.143 0-7.5 3.358-7.5 7.5s3.357 7.5 7.5 7.5h30.163l-.02 8.781h-30.143c-4.143 0-7.5 3.358-7.5 7.5s3.357 7.5 7.5 7.5h30.109l-.057 24.745c-.01 4.142 3.341 7.508 7.482 7.517h.018c4.134 0 7.49-3.347 7.5-7.483l.057-24.779h29.98c4.143 0 7.5-3.358 7.5-7.5s-3.357-7.5-7.5-7.5h-29.946l.02-8.781h29.926c4.143 0 7.5-3.358 7.5-7.5s-3.357-7.5-7.5-7.5h-26.95l33.281-50.286c2.286-3.454 1.34-8.107-2.114-10.393z"/></g></svg>