<?xml version="1.0" encoding="UTF-8" standalone="no"?>
<!-- Created with Inkscape (http://www.inkscape.org/) -->

<svg
   version="1.1"
   id="svg4011"
   xml:space="preserve"
   width="682.66669"
   height="682.66669"
   viewBox="0 0 682.66669 682.66669"
   xmlns="http://www.w3.org/2000/svg"
   xmlns:svg="http://www.w3.org/2000/svg"><defs
     id="defs4015"><clipPath
       clipPathUnits="userSpaceOnUse"
       id="clipPath4025"><path
         d="M 0,512 H 512 V 0 H 0 Z"
         id="path4023" /></clipPath></defs><g
     id="g4017"
     transform="matrix(1.3333333,0,0,-1.3333333,0,682.66667)"><g
       id="g4019"><g
         id="g4021"
         clip-path="url(#clipPath4025)"><g
           id="g4027"
           transform="translate(382.9893,504.5)"><path
             d="m 0,0 h -253.979 c -22.367,0 -40.5,-18.133 -40.5,-40.5 V -159.437 H 40.5 V -40.5 C 40.5,-18.133 22.368,0 0,0"
             style="fill:#ececec;fill-opacity:1;fill-rule:nonzero;stroke:none"
             id="path4029" /></g><g
           id="g4031"
           transform="translate(398.4297,383.1187)"><path
             d="m 0,0 h -284.859 c -29.606,0 -53.606,-24 -53.606,-53.605 v -285.77 H 53.606 v 285.77 C 53.606,-24 29.606,0 0,0"
             style="fill:#ff919e;fill-opacity:1;fill-rule:nonzero;stroke:none"
             id="path4033" /></g><g
           id="g4035"
           transform="translate(281.0503,194.5083)"><path
             d="m 0,0 h -50.101 c -13.829,0 -25.04,-11.211 -25.04,-25.04 V -150.764 H 25.04 V -25.04 C 25.04,-11.211 13.829,0 0,0"
             style="fill:#6a647f;fill-opacity:1;fill-rule:nonzero;stroke:none"
             id="path4037" /></g><g
           id="g4039"
           transform="translate(143.8418,194.5083)"><path
             d="m 0,0 h -21.809 c -10.045,0 -18.189,-8.143 -18.189,-18.188 v -43.753 c 0,-10.045 8.144,-18.188 18.189,-18.188 H 0 c 10.045,0 18.188,8.143 18.188,18.188 v 43.753 C 18.188,-8.143 10.045,0 0,0"
             style="fill:#ffea98;fill-opacity:1;fill-rule:nonzero;stroke:none"
             id="path4041" /></g><g
           id="g4043"
           transform="translate(143.8418,325.1367)"><path
             d="M 0,0 H -21.809 C -31.854,0 -39.998,-8.143 -39.998,-18.188 V -61.94 c 0,-10.046 8.144,-18.189 18.189,-18.189 H 0 c 10.045,0 18.188,8.143 18.188,18.189 v 43.752 C 18.188,-8.143 10.045,0 0,0"
             style="fill:#ffea98;fill-opacity:1;fill-rule:nonzero;stroke:none"
             id="path4045" /></g><g
           id="g4047"
           transform="translate(266.9043,325.1367)"><path
             d="M 0,0 H -21.809 C -31.854,0 -39.997,-8.143 -39.997,-18.188 V -61.94 c 0,-10.046 8.143,-18.189 18.188,-18.189 H 0 c 10.045,0 18.189,8.143 18.189,18.189 v 43.752 C 18.189,-8.143 10.045,0 0,0"
             style="fill:#ffea98;fill-opacity:1;fill-rule:nonzero;stroke:none"
             id="path4049" /></g><g
           id="g4051"
           transform="translate(368.1582,194.5083)"><path
             d="m 0,0 h 21.809 c 10.045,0 18.189,-8.143 18.189,-18.188 v -43.753 c 0,-10.045 -8.144,-18.188 -18.189,-18.188 H 0 c -10.045,0 -18.188,8.143 -18.188,18.188 v 43.753 C -18.188,-8.143 -10.045,0 0,0"
             style="fill:#ffea98;fill-opacity:1;fill-rule:nonzero;stroke:none"
             id="path4053" /></g><g
           id="g4055"
           transform="translate(368.1582,325.1367)"><path
             d="M 0,0 H 21.809 C 31.854,0 39.998,-8.143 39.998,-18.188 V -61.94 c 0,-10.046 -8.144,-18.189 -18.189,-18.189 H 0 c -10.045,0 -18.188,8.143 -18.188,18.189 v 43.752 C -18.188,-8.143 -10.045,0 0,0"
             style="fill:#ffea98;fill-opacity:1;fill-rule:nonzero;stroke:none"
             id="path4057" /></g><g
           id="g4059"
           transform="translate(448.4971,73.9473)"><path
             d="m 0,0 h -384.994 c -16.891,0 -30.585,-13.693 -30.585,-30.584 V -49.45 c 0,-9.387 7.611,-16.997 16.998,-16.997 H 13.587 c 9.388,0 16.997,7.61 16.997,16.997 v 18.866 C 30.584,-13.693 16.891,0 0,0"
             style="fill:#d7d6d9;fill-opacity:1;fill-rule:nonzero;stroke:none"
             id="path4061" /></g><g
           id="g4063"
           transform="translate(81.4424,226.3813)"><path
             d="m 0,0 c 0,56.739 14.345,110.125 39.602,156.737 h -7.474 c -29.606,0 -53.606,-24 -53.606,-53.605 V -182.637 H 55.231 C 20.349,-130.362 0,-67.561 0,0"
             style="fill:#ff737d;fill-opacity:1;fill-rule:nonzero;stroke:none"
             id="path4065" /></g><g
           id="g4067"
           transform="translate(118.7729,73.9473)"><path
             d="M 0,0 H -55.27 C -72.161,0 -85.854,-13.693 -85.854,-30.584 V -49.45 c 0,-9.387 7.609,-16.997 16.997,-16.997 H 45.907 C 28.028,-46.348 12.574,-24.048 0,0"
             style="fill:#c5c4c9;fill-opacity:1;fill-rule:nonzero;stroke:none"
             id="path4069" /></g><g
           id="g4071"
           transform="translate(123.2822,295.5166)"><path
             d="M 0,0 C 0,9.833 -0.5,20.25 1.237,29.621 H -1.25 c -10.045,0 -18.188,-8.143 -18.188,-18.189 V -32.32 c 0,-10.045 8.143,-18.189 18.188,-18.189 h 21.81 c 4.124,0 7.915,1.389 10.966,3.703 C 13.041,-39.302 0,-21.179 0,0"
             style="fill:#f9d888;fill-opacity:1;fill-rule:nonzero;stroke:none"
             id="path4073" /></g><g
           id="g4075"
           transform="translate(246.3452,295.5166)"><path
             d="M 0,0 C 0,9.833 -0.5,20.25 1.237,29.621 H -1.25 c -10.045,0 -18.188,-8.143 -18.188,-18.189 V -32.32 c 0,-10.045 8.143,-18.189 18.188,-18.189 h 21.809 c 4.125,0 7.916,1.389 10.966,3.703 C 13.041,-39.302 0,-21.179 0,0"
             style="fill:#f9d888;fill-opacity:1;fill-rule:nonzero;stroke:none"
             id="path4077" /></g><g
           id="g4079"
           transform="translate(369.4082,295.5166)"><path
             d="M 0,0 C 0,9.833 -0.5,20.25 1.237,29.621 H -1.25 c -10.045,0 -18.188,-8.143 -18.188,-18.189 V -32.32 c 0,-10.045 8.143,-18.189 18.188,-18.189 h 21.809 c 4.125,0 7.915,1.389 10.966,3.703 C 13.041,-39.302 0,-21.179 0,0"
             style="fill:#f9d888;fill-opacity:1;fill-rule:nonzero;stroke:none"
             id="path4081" /></g><g
           id="g4083"
           transform="translate(123.2822,164.8877)"><path
             d="M 0,0 C 0,9.833 -0.5,20.25 1.237,29.621 H -1.25 c -10.045,0 -18.188,-8.143 -18.188,-18.189 V -32.32 c 0,-10.045 8.143,-18.189 18.188,-18.189 h 21.81 c 4.124,0 7.915,1.389 10.966,3.703 C 13.041,-39.302 0,-21.179 0,0"
             style="fill:#f9d888;fill-opacity:1;fill-rule:nonzero;stroke:none"
             id="path4085" /></g><g
           id="g4087"
           transform="translate(369.4082,164.8877)"><path
             d="M 0,0 C 0,9.833 -0.5,20.25 1.237,29.621 H -1.25 c -10.045,0 -18.188,-8.143 -18.188,-18.189 V -32.32 c 0,-10.045 8.143,-18.189 18.188,-18.189 h 21.809 c 4.125,0 7.915,1.389 10.966,3.703 C 13.041,-39.302 0,-21.179 0,0"
             style="fill:#f9d888;fill-opacity:1;fill-rule:nonzero;stroke:none"
             id="path4089" /></g><g
           id="g4091"
           transform="translate(143.8418,194.5083)"><path
             d="M 0,0 H -21.809 C -31.854,0 -39.998,-8.143 -39.998,-18.188 V -61.94 c 0,-10.046 8.144,-18.189 18.189,-18.189 H 0 c 10.045,0 18.188,8.143 18.188,18.189 v 43.752 C 18.188,-8.143 10.045,0 0,0 Z"
             style="fill:none;stroke:#000000;stroke-width:15;stroke-linecap:round;stroke-linejoin:round;stroke-miterlimit:10;stroke-dasharray:none;stroke-opacity:1"
             id="path4093" /></g><g
           id="g4095"
           transform="translate(143.8418,325.1372)"><path
             d="m 0,0 h -21.809 c -10.045,0 -18.189,-8.144 -18.189,-18.188 v -43.753 c 0,-10.045 8.144,-18.188 18.189,-18.188 H 0 c 10.045,0 18.188,8.143 18.188,18.188 v 43.753 C 18.188,-8.144 10.045,0 0,0 Z"
             style="fill:none;stroke:#000000;stroke-width:15;stroke-linecap:round;stroke-linejoin:round;stroke-miterlimit:10;stroke-dasharray:none;stroke-opacity:1"
             id="path4097" /></g><g
           id="g4099"
           transform="translate(266.9043,325.1372)"><path
             d="m 0,0 h -21.809 c -10.045,0 -18.188,-8.144 -18.188,-18.188 v -43.753 c 0,-10.045 8.143,-18.188 18.188,-18.188 H 0 c 10.045,0 18.188,8.143 18.188,18.188 v 43.753 C 18.188,-8.144 10.045,0 0,0 Z"
             style="fill:none;stroke:#000000;stroke-width:15;stroke-linecap:round;stroke-linejoin:round;stroke-miterlimit:10;stroke-dasharray:none;stroke-opacity:1"
             id="path4101" /></g><g
           id="g4103"
           transform="translate(368.1582,194.5083)"><path
             d="M 0,0 H 21.809 C 31.854,0 39.998,-8.143 39.998,-18.188 V -61.94 c 0,-10.046 -8.144,-18.189 -18.189,-18.189 H 0 c -10.045,0 -18.188,8.143 -18.188,18.189 v 43.752 C -18.188,-8.143 -10.045,0 0,0 Z"
             style="fill:none;stroke:#000000;stroke-width:15;stroke-linecap:round;stroke-linejoin:round;stroke-miterlimit:10;stroke-dasharray:none;stroke-opacity:1"
             id="path4105" /></g><g
           id="g4107"
           transform="translate(368.1582,325.1372)"><path
             d="m 0,0 h 21.809 c 10.045,0 18.189,-8.144 18.189,-18.188 v -43.753 c 0,-10.045 -8.144,-18.188 -18.189,-18.188 H 0 c -10.045,0 -18.188,8.143 -18.188,18.188 v 43.753 C -18.188,-8.144 -10.045,0 0,0 Z"
             style="fill:none;stroke:#000000;stroke-width:15;stroke-linecap:round;stroke-linejoin:round;stroke-miterlimit:10;stroke-dasharray:none;stroke-opacity:1"
             id="path4109" /></g><g
           id="g4111"
           transform="translate(368.2383,471.9995)"><path
             d="m 0,0 v -56.817 c 0.628,-0.107 19.912,0 19.912,0"
             style="fill:none;stroke:#000000;stroke-width:15;stroke-linecap:round;stroke-linejoin:round;stroke-miterlimit:10;stroke-dasharray:none;stroke-opacity:1"
             id="path4113" /></g><g
           id="g4115"
           transform="translate(123.8496,471.9995)"><path
             d="M 0,0 V -56.865"
             style="fill:none;stroke:#000000;stroke-width:15;stroke-linecap:round;stroke-linejoin:round;stroke-miterlimit:10;stroke-dasharray:none;stroke-opacity:1"
             id="path4117" /></g><g
           id="g4119"
           transform="translate(163.2002,471.9995)"><path
             d="M 0,0 V -56.865"
             style="fill:none;stroke:#000000;stroke-width:15;stroke-linecap:round;stroke-linejoin:round;stroke-miterlimit:10;stroke-dasharray:none;stroke-opacity:1"
             id="path4121" /></g><g
           id="g4123"
           transform="translate(123.8496,444.5425)"><path
             d="M 0,0 H 39.351"
             style="fill:none;stroke:#000000;stroke-width:15;stroke-linecap:round;stroke-linejoin:round;stroke-miterlimit:10;stroke-dasharray:none;stroke-opacity:1"
             id="path4125" /></g><g
           id="g4127"
           transform="translate(341.4658,471.4805)"><path
             d="M 0,0 H -23.742 V -56.346 H 0"
             style="fill:none;stroke:#000000;stroke-width:15;stroke-linecap:round;stroke-linejoin:round;stroke-miterlimit:10;stroke-dasharray:none;stroke-opacity:1"
             id="path4129" /></g><g
           id="g4131"
           transform="translate(339.7153,443.3076)"><path
             d="M 0,0 H -21.991"
             style="fill:none;stroke:#000000;stroke-width:15;stroke-linecap:round;stroke-linejoin:round;stroke-miterlimit:10;stroke-dasharray:none;stroke-opacity:1"
             id="path4133" /></g><g
           id="g4135"
           transform="translate(260.2593,471.9995)"><path
             d="M 0,0 H 31.404"
             style="fill:none;stroke:#000000;stroke-width:15;stroke-linecap:round;stroke-linejoin:round;stroke-miterlimit:10;stroke-dasharray:none;stroke-opacity:1"
             id="path4137" /></g><g
           id="g4139"
           transform="translate(275.8979,470.1836)"><path
             d="M 0,0 V -55.049"
             style="fill:none;stroke:#000000;stroke-width:15;stroke-linecap:round;stroke-linejoin:round;stroke-miterlimit:10;stroke-dasharray:none;stroke-opacity:1"
             id="path4141" /></g><g
           id="g4143"
           transform="translate(243.7129,443.5669)"><path
             d="m 0,0 c 0,-15.703 -12.73,-28.432 -28.433,-28.432 -15.702,0 -28.432,12.729 -28.432,28.432 0,15.703 12.73,28.433 28.432,28.433 C -12.73,28.433 0,15.703 0,0 Z"
             style="fill:none;stroke:#000000;stroke-width:15;stroke-linecap:round;stroke-linejoin:round;stroke-miterlimit:10;stroke-dasharray:none;stroke-opacity:1"
             id="path4145" /></g><g
           id="g4147"
           transform="translate(113.5703,383.1187)"><path
             d="m 0,0 h 284.859 c 9.055,0 17.58,-2.254 25.06,-6.218 v 87.099 c 0,22.368 -18.132,40.5 -40.501,40.5 H 15.44 c -22.367,0 -40.5,-18.132 -40.5,-40.5 V -6.218 C -17.58,-2.254 -9.055,0 0,0 Z"
             style="fill:none;stroke:#000000;stroke-width:15;stroke-linecap:round;stroke-linejoin:round;stroke-miterlimit:10;stroke-dasharray:none;stroke-opacity:1"
             id="path4149" /></g><g
           id="g4151"
           transform="translate(59.9644,146.6641)"><path
             d="m 0,0 v -72.927 c 1.162,0.134 2.341,0.21 3.539,0.21 h 384.994 c 1.197,0 2.376,-0.076 3.538,-0.21 v 179.795"
             style="fill:none;stroke:#000000;stroke-width:15;stroke-linecap:round;stroke-linejoin:round;stroke-miterlimit:10;stroke-dasharray:none;stroke-opacity:1"
             id="path4153" /></g><g
           id="g4155"
           transform="translate(452.0356,283.5322)"><path
             d="m 0,0 v 45.981 c 0,29.605 -24,53.605 -53.606,53.605 h -284.859 c -29.606,0 -53.606,-24 -53.606,-53.605 v -152.849"
             style="fill:none;stroke:#000000;stroke-width:15;stroke-linecap:round;stroke-linejoin:round;stroke-miterlimit:10;stroke-dasharray:none;stroke-opacity:1"
             id="path4157" /></g><g
           id="g4159"
           transform="translate(306.0903,73.9473)"><path
             d="m 0,0 v 95.521 c 0,13.83 -11.211,25.04 -25.04,25.04 h -50.101 c -13.829,0 -25.04,-11.21 -25.04,-25.04 l 0,-95.521 z"
             style="fill:none;stroke:#000000;stroke-width:15;stroke-linecap:round;stroke-linejoin:round;stroke-miterlimit:10;stroke-dasharray:none;stroke-opacity:1"
             id="path4161" /></g><g
           id="g4163"
           transform="translate(448.4971,73.9473)"><path
             d="m 0,0 h -384.994 c -16.891,0 -30.585,-13.693 -30.585,-30.584 V -49.45 c 0,-9.387 7.61,-16.997 16.998,-16.997 H 13.587 c 9.388,0 16.997,7.61 16.997,16.997 v 18.866 C 30.584,-13.693 16.891,0 0,0 Z"
             style="fill:none;stroke:#000000;stroke-width:15;stroke-linecap:round;stroke-linejoin:round;stroke-miterlimit:10;stroke-dasharray:none;stroke-opacity:1"
             id="path4165" /></g></g></g></g></svg>
