<?xml version="1.0" encoding="utf-8"?>
<!-- Generator: Adobe Illustrator 23.0.5, SVG Export Plug-In . SVG Version: 6.00 Build 0)  -->
<svg version="1.1" id="Layer_1" xmlns="http://www.w3.org/2000/svg" xmlns:xlink="http://www.w3.org/1999/xlink" x="0px" y="0px"
	 viewBox="0 0 300 83.5" style="enable-background:new 0 0 300 83.5;" xml:space="preserve">
<style type="text/css">
	.st0{fill:#30395E;}
	.st1{fill:#E78E56;}
	.st2{fill:none;}
</style>
<polygon class="st0" points="72.33,81.75 84.1,81.75 84.1,65.44 66.85,65.44 "/>
<polygon class="st0" points="55.99,2.36 43.56,81.75 50.17,81.75 59.13,20.41 68.05,81.75 74.82,81.75 62.36,2.36 "/>
<polygon class="st0" points="96.92,50.53 83.06,2.36 77.73,2.36 77.73,81.75 84.1,81.75 84.1,33.56 98,81.75 103.29,81.75 
	103.29,2.36 96.92,2.36 "/>
<path class="st0" d="M130.57,7.29c-2.31-3.29-4.98-4.93-8-4.93H109.9v79.39h12.66c3.03,0,5.69-1.64,8-4.93
	c2.31-3.29,4.11-7.9,5.42-13.84c1.3-5.93,1.95-12.91,1.95-20.93c0-8.09-0.65-15.09-1.95-20.98
	C134.68,15.18,132.88,10.58,130.57,7.29z M130.27,55.1c-0.76,3.71-1.82,6.56-3.19,8.56c-1.37,2-2.98,3.01-4.84,3.01h-5.89V17.45
	h5.89c1.86,0,3.47,1,4.84,3.01c1.37,2,2.43,4.84,3.19,8.51c0.76,3.67,1.13,8.03,1.13,13.1C131.4,47.05,131.03,51.4,130.27,55.1z"/>
<rect x="150.68" y="34.35" class="st0" width="11.46" height="14.29"/>
<polygon class="st0" points="149.2,17.11 163.86,17.11 163.86,2.36 142.79,2.36 142.79,81.75 164.38,81.75 164.38,67.01 
	149.2,67.01 "/>
<path class="st0" d="M188.03,56.24c1.8-2.27,3.2-5.54,4.18-9.81c0.98-4.27,1.47-9.36,1.47-15.26c0-5.97-0.49-11.11-1.47-15.42
	c-0.98-4.31-2.38-7.62-4.18-9.92c-1.81-2.31-3.96-3.46-6.45-3.46h-12.07v79.39h6.45V63.37v-1.04v-8.7v-2.04V40.12V17.33h5.26
	c1.99,0,3.48,1.21,4.46,3.63c0.98,2.42,1.47,5.82,1.47,10.21c0,4.31-0.49,7.7-1.47,10.15c-0.98,2.46-2.47,3.69-4.46,3.69h-2.62
	l4.29,18.81l0,0l4.34,17.94h6.97l-6.23-25.46C187.99,56.28,188.01,56.26,188.03,56.24z"/>
<polygon class="st1" points="205.23,2.36 198.78,2.36 198.78,81.75 219.21,81.75 219.21,66.78 205.23,66.78 "/>
<path class="st1" d="M241.11,46.14c0,7.56-0.54,13.01-1.63,16.33c-1.09,3.33-2.62,4.99-4.58,4.99c-1.97,0-3.49-1.66-4.58-4.99
	c-1.09-3.33-1.63-8.77-1.63-16.33V2.36h-6.45v44.46c0,11.64,1.11,20.61,3.34,26.88c2.23,6.28,5.32,9.41,9.28,9.41
	c3.96,0,7.05-3.14,9.28-9.41c2.23-6.28,3.34-15.24,3.34-26.88V2.36h-6.37V46.14z"/>
<path class="st1" d="M271.61,41.6c-0.96-1.66-2.01-2.99-3.17-3.97c-1.15-0.98-2.31-1.85-3.46-2.61c-1.15-0.76-2.21-1.51-3.17-2.27
	c-0.96-0.76-1.73-1.76-2.31-3.01c-0.58-1.25-0.88-2.89-0.88-4.93c0-1.74,0.17-3.27,0.52-4.59c0.34-1.32,0.92-2.4,1.71-3.23
	c0.8-0.83,1.82-1.25,3.07-1.25c1.25,0,2.52,0.51,3.82,1.53c1.3,1.02,2.6,2.59,3.9,4.71l1.99-13.95c-1.3-2.34-2.8-4.1-4.5-5.27
	c-1.7-1.17-3.42-1.76-5.18-1.76c-2.63,0-4.81,1.12-6.55,3.35c-1.74,2.23-3.04,5.22-3.9,8.96c-0.86,3.74-1.29,7.88-1.29,12.42
	c0,4.24,0.3,7.71,0.9,10.43c0.6,2.72,1.37,4.92,2.33,6.58c0.96,1.66,2.01,3.02,3.17,4.08c1.15,1.06,2.31,1.95,3.46,2.66
	c1.15,0.72,2.21,1.47,3.17,2.27c0.96,0.79,1.73,1.81,2.31,3.06c0.58,1.25,0.88,2.93,0.88,5.05c0,1.66-0.19,3.14-0.56,4.42
	c-0.37,1.29-0.95,2.29-1.73,3.01c-0.78,0.72-1.81,1.08-3.09,1.08c-1.67,0-3.32-0.77-4.96-2.33c-1.63-1.55-3.05-3.53-4.24-5.95
	l-2.19,13.84c1.25,2.72,2.89,4.93,4.94,6.64c2.04,1.7,4.18,2.55,6.41,2.55c2.65,0,4.85-1.13,6.59-3.4c1.74-2.27,3.05-5.25,3.92-8.96
	c0.88-3.7,1.31-7.79,1.31-12.25c0-4.16-0.3-7.6-0.9-10.32C273.34,45.46,272.56,43.27,271.61,41.6z"/>
<polygon class="st1" points="275.71,2.36 275.71,17.33 284.63,17.33 284.63,81.75 291.08,81.75 291.08,17.33 300,17.33 300,2.36 "/>
<polygon class="st2" points="22.37,27.96 22.36,28.03 23.98,42.05 "/>
<polygon class="st0" points="12.98,58.17 6.69,2.36 0,2.36 9.12,81.75 16.05,81.75 20.19,45.39 17.19,21.27 "/>
<polygon class="st0" points="38.39,2.36 31.89,58.58 25.52,2.36 19.55,2.36 19.47,3.04 22.36,28.03 22.37,27.96 23.98,42.05 
	23.98,42.06 23.98,42.06 28.51,81.75 35.44,81.75 44.56,2.36 "/>
<polygon class="st0" points="23.98,42.05 23.98,42.06 23.98,42.06 "/>
</svg>
