<svg id="Layer_1" height="512" viewBox="0 0 512 512" width="512" xmlns="http://www.w3.org/2000/svg" data-name="Layer 1"><path d="m156.805 441.653h11.162v21.535h-16.636a56.651 56.651 0 0 0 5.474-21.535zm-56.982-54.06a51.061 51.061 0 1 0 51.061 51.06 51.119 51.119 0 0 0 -51.061-51.06zm-88.038 54.06v21.535h36.531a56.633 56.633 0 0 1 -5.474-21.535zm162.182-53.429h258.484a17.806 17.806 0 0 0 17.786-17.786v-62.8a17.806 17.806 0 0 0 -17.786-17.785h-258.484zm187.033-207.36a1.931 1.931 0 0 0 -1.929 1.928v26.473a1.931 1.931 0 0 0 1.929 1.928h47.808a1.93 1.93 0 0 0 1.928-1.928v-26.473a1.93 1.93 0 0 0 -1.928-1.928zm139.215 282.324-21.915-95.488h-12.063v2.74a33.824 33.824 0 0 1 -33.786 33.786h-258.484v31.429h1.655a45.756 45.756 0 0 1 84.049 25.057c0 .813-.024 1.641-.071 2.478h6.012c-.048-.837-.072-1.665-.072-2.478a45.768 45.768 0 0 1 91.536 0c0 .813-.024 1.641-.072 2.478h7.358c-.048-.837-.071-1.665-.071-2.478a45.768 45.768 0 1 1 91.536 0c0 .813-.024 1.641-.072 2.478zm-128.169-245.995v66.658h25.716v-66.658zm-329.739 79.632h95.138a10.351 10.351 0 0 0 10.34-10.339v-58.954a10.351 10.351 0 0 0 -10.34-10.339h-95.138a10.351 10.351 0 0 0 -10.339 10.339v58.954a10.351 10.351 0 0 0 10.339 10.339zm138.635-122.3h-169.157v19.622h169.157zm-169.157 25.618h156.182v235.51h-11.162a57.06 57.06 0 0 0 -113.963 0h-31.057zm14.183 86.343a16.357 16.357 0 0 0 16.339 16.339h95.138a16.358 16.358 0 0 0 16.34-16.339v-58.954a16.358 16.358 0 0 0 -16.34-16.339h-95.138a16.357 16.357 0 0 0 -16.339 16.339zm384.091 139.22a35 35 0 1 0 35 35 35.044 35.044 0 0 0 -35-35zm-98.751 0a35 35 0 1 0 35 35 35.044 35.044 0 0 0 -35-35zm-68.116-331.58a145.265 145.265 0 0 0 18.239-1.141c6.328 14.027 21.081 23.294 37.48 23.294a42.953 42.953 0 0 0 12.315-1.785c5.345 15.017 18.583 24.144 31.856 21.512a22.489 22.489 0 0 0 4.786-1.523c2.792 12.438 12.186 21.348 23.2 21.348.382 0 .769-.014 1.166-.041 3.888 6.552 10.241 10.539 17 10.539 11.511 0 20.876-11.252 20.876-25.082 0-11.947-6.961-22.093-16.5-24.523-3.473-11.38-12.339-18.893-22.546-18.893a20.356 20.356 0 0 0 -7.261 1.355q-.1-.591-.211-1.169c-2.839-14.317-12.843-25.217-24.764-27.345-2.611-12.4-11.653-22.837-24.152-27.763-10-15.965-38.485-26.623-71.484-26.623-42.182 0-75.225 17.1-75.225 38.92s33.043 38.92 75.225 38.92zm-29.292 331.58a35 35 0 1 0 35 35 35.044 35.044 0 0 0 -35-35z"/></svg>