<svg height="512" viewBox="0 0 512 512" width="512" xmlns="http://www.w3.org/2000/svg"><g id="g"><circle cx="404.82" cy="379.79" r="49.73"/><circle cx="107.18" cy="379.79" r="49.73"/><path d="m511.17 334.25c-3.92-17.51-7.85-35.38-11.77-53.6-2.83-13.07-12.65-24.08-25.32-28.27-28.4-9.26-56.84-18.99-85.32-28.68-4.13-22.77-9.68-39.85-14.53-52.68-8.83-23.09-34.6-44.25-58.47-48.74-5.95-1.17-16.19-2.45-27.99-3.53-.08-.35-.17-.71-.28-1.06-2.59-7.82-5.19-15.97-7.79-24.39-1.58-5.08-6.04-8.98-11.09-9.4-23.41-1.89-46.93-1.89-70.33 0-5.04.43-9.51 4.33-11.09 9.4-2.6 8.42-5.2 16.57-7.79 24.39-.17.51-.3 1.02-.39 1.53-9.84.99-18.25 2.1-23.42 3.13-23.92 4.58-50 26.17-59.16 49.73-5.23 13.64-11.3 31.96-15.81 56.63-16.61 7.62-33.21 15.1-49.79 22.29-12.21 5.35-21.03 16.88-22.8 29.88-2.57 18.93-5.14 37.63-7.7 56.08-2.84 20.12 13.07 40.37 33.78 42.91 1.74.19 3.49.37 5.23.55 0-.21-.02-.43-.02-.64 0-37.41 30.44-67.85 67.85-67.85s67.85 30.44 67.85 67.85c0 3.58-.28 7.1-.82 10.53 54.5 2.18 109.07 2.18 163.57 0-.54-3.43-.82-6.95-.82-10.53 0-37.41 30.44-67.85 67.85-67.85s67.85 30.44 67.85 67.85c0 .21-.01.43-.02.64 1.74-.19 3.48-.36 5.23-.55 21.84-2.72 38.03-24.82 33.29-45.62zm-293.14-131.7c0 6.31-5.12 11.43-11.43 11.43h-79.54c-7.72 0-13.21-7.5-10.9-14.86 2.11-6.75 4.15-12.34 5.88-16.85 5.6-14.35 23.42-29.4 38.17-32.22l.09-.02.09-.02c7.73-1.53 26.45-3.57 45.55-4.72 6.56-.39 12.09 4.84 12.09 11.41zm124.38 11.43h-81.15c-6.31 0-11.43-5.12-11.43-11.43v-45.98c0-6.56 5.52-11.78 12.07-11.41 19.84 1.1 39.71 3.22 47.74 4.79l.11.02.11.02c14.59 2.75 32.02 17.25 37.33 31.06 1.81 4.8 3.98 10.85 6.18 18.26 2.17 7.32-3.33 14.67-10.96 14.67z"/></g></svg>